# xmcd CD database file
#
# Track frame offsets:
#	150
#	18312
#	35392
#	50224
#	71526
#	84284
#	94168
#	109735
#	123590
#	135533
#	153714
#	167153
#	180193
#	195223
#	207970
#	219711
#	239460
#	253240
#
# Disc length: 3640 seconds
#
# Revision: 0
# Processed by: cddbd v1.5.1PL0 Copyright (c) Steve Scherf et al.
# Submitted via: CDex 1.51
#
DISCID=fb0e3612
DTITLE=Porteña Jazz Band - Volumen 1
DYEAR=1900
DGENRE=Jazz
TTITLE0=Alta Sociedad
TTITLE1=Blues de la Tia Hagar
TTITLE2=King Porter Stomp
TTITLE3=Blues del perro amarillo
TTITLE4=Trote de la costa este
TTITLE5=Asi de apretado
TTITLE6=Alegria de New Orleans
TTITLE7=Mama de media noche
TTITLE8=Rag perfecto
TTITLE9=Saratoga swing
TTITLE10=Acaba de irse
TTITLE11=Stomp de la cabra
TTITLE12=Blues de la vereda
TTITLE13=Blues del carro de carbon
TTITLE14=Blues del gato salvaje
TTITLE15=St. Louis Blues
TTITLE16=Blues melancolico
TTITLE17=The Creeper
EXTD=
EXTT0=
EXTT1=
EXTT2=
EXTT3=
EXTT4=
EXTT5=
EXTT6=
EXTT7=
EXTT8=
EXTT9=
EXTT10=
EXTT11=
EXTT12=
EXTT13=
EXTT14=
EXTT15=
EXTT16=
EXTT17=
PLAYORDER=
